<svg width="170" height="170" viewBox="0 0 170 170" fill="none" xmlns="http://www.w3.org/2000/svg">
<rect x="32" y="44" width="114" height="81" fill="white"/>
<path d="M158.606 42.4991L138.882 31.1105L127.496 11.3886H104.722L84.9973 0L65.2725 11.3886H42.4986L31.11 31.1135L11.3886 42.4991V65.2729L0 84.9978L11.3886 104.723V127.496L31.1135 138.885L42.5021 158.61H65.2759L84.9978 169.996L104.723 158.607H127.496L138.885 138.882L158.61 127.493V104.72L169.999 84.9948L158.61 65.27V42.4991H158.606ZM77.3259 119.787C75.741 121.371 73.653 122.142 71.5744 122.113C69.4953 122.142 67.4078 121.371 65.8229 119.787L40.9641 94.9277C37.8501 91.8137 37.8501 86.762 40.9641 83.648L47.5449 77.0672C50.6589 73.9531 55.7106 73.9531 58.8246 77.0672L71.5744 89.8169L111.168 50.2203C114.282 47.1063 119.334 47.1063 122.448 50.2203L129.029 56.8012C132.143 59.9152 132.143 64.9669 129.029 68.0809L77.3259 119.787Z" fill="#30CC57"/>
</svg>
