<svg width="16" height="18" viewBox="0 0 16 18" fill="none" xmlns="http://www.w3.org/2000/svg">
<path d="M10.5984 0.103958C10.5159 0.0170288 10.4027 -0.0351562 10.2854 -0.0351562H3.26366C1.96796 -0.0351562 0.898438 1.03011 0.898438 2.32567V15.6039C0.898438 16.8996 1.96796 17.9648 3.26366 17.9648H12.794C14.0897 17.9648 15.1592 16.8996 15.1592 15.6039V5.06044C15.1592 4.94742 15.1071 4.83879 15.0332 4.75612L10.5984 0.103958ZM10.7245 1.49963L13.6941 4.617H11.7636C11.1897 4.617 10.7245 4.15613 10.7245 3.58223V1.49963ZM12.794 17.0953H3.26366C2.45067 17.0953 1.76801 16.4214 1.76801 15.6039V2.32567C1.76801 1.51268 2.44627 0.834412 3.26366 0.834412H9.85491V3.58223C9.85491 4.6387 10.7072 5.48657 11.7636 5.48657H14.2897V15.6039C14.2897 16.4214 13.6114 17.0953 12.794 17.0953Z" fill="white"/>
<path d="M11.6071 14.0952H4.45065C4.21156 14.0952 4.01587 14.2908 4.01587 14.53C4.01587 14.7691 4.21156 14.9648 4.45065 14.9648H11.6115C11.8506 14.9648 12.0463 14.7691 12.0463 14.53C12.0463 14.2908 11.8506 14.0952 11.6071 14.0952Z" fill="white"/>
<path d="M7.71138 12.5345C7.79405 12.6214 7.90707 12.6736 8.02874 12.6736C8.15055 12.6736 8.26358 12.6214 8.34611 12.5345L10.894 9.79973C11.0592 9.62573 11.0461 9.3475 10.8723 9.18669C10.6983 9.02148 10.4201 9.03439 10.2592 9.20839L8.46353 11.1344V6.38669C8.46353 6.14746 8.26783 5.9519 8.02874 5.9519C7.78965 5.9519 7.59396 6.14746 7.59396 6.38669V11.1344L5.80264 9.20839C5.63743 9.03453 5.36346 9.02148 5.1896 9.18669C5.01574 9.3519 5.0027 9.62587 5.1679 9.79973L7.71138 12.5345Z" fill="white"/>
</svg>
