<svg width="22" height="17" viewBox="0 0 22 17" fill="none" xmlns="http://www.w3.org/2000/svg">
<path d="M19.3143 0H2.69025C1.20629 0 0 1.20629 0 2.69025V14.0521C0 15.5361 1.20629 16.7424 2.69025 16.7424H19.3097C20.7937 16.7424 22 15.5361 22 14.0521V2.69481C22.0045 1.21084 20.7983 0 19.3143 0ZM20.7755 14.0521C20.7755 14.8579 20.12 15.5133 19.3143 15.5133H2.69025C1.88454 15.5133 1.22905 14.8579 1.22905 14.0521V2.69481C1.22905 1.8891 1.88454 1.2336 2.69025 1.2336H19.3097C20.1155 1.2336 20.7709 1.8891 20.7709 2.69481V14.0521H20.7755Z" fill="#888888"/>
<path d="M13.8747 8.2301L19.2552 3.40494C19.5056 3.17734 19.5283 2.79041 19.3007 2.5355C19.0731 2.28514 18.6862 2.26238 18.4313 2.48998L11.0115 9.14961L9.56393 7.85683C9.55937 7.85228 9.55482 7.84773 9.55482 7.84318C9.52296 7.81131 9.49109 7.784 9.45468 7.75669L3.56434 2.48543C3.30943 2.25783 2.9225 2.28059 2.6949 2.5355C2.4673 2.79041 2.49006 3.17734 2.74497 3.40494L8.18921 8.27107L2.76773 13.3466C2.52192 13.5787 2.50827 13.9657 2.74042 14.216C2.86333 14.3435 3.0272 14.4118 3.19107 14.4118C3.34129 14.4118 3.49151 14.3571 3.60986 14.2479L9.11328 9.09954L10.6063 10.4333C10.7247 10.538 10.8704 10.5881 11.016 10.5881C11.1617 10.5881 11.3119 10.5334 11.4257 10.4287L12.9597 9.05402L18.4313 14.2524C18.5497 14.3662 18.7044 14.4209 18.8546 14.4209C19.0185 14.4209 19.1778 14.3571 19.3007 14.2297C19.5329 13.9839 19.5238 13.5924 19.278 13.3602L13.8747 8.2301Z" fill="#888888"/>
</svg>
