<svg width="170" height="170" viewBox="0 0 170 170" fill="none" xmlns="http://www.w3.org/2000/svg">
<path fill-rule="evenodd" clip-rule="evenodd" d="M138.882 31.1105L158.606 42.4991H158.61V65.27L169.999 84.9948L158.61 104.72V127.493L138.885 138.882L127.496 158.607H104.723L84.9978 169.996L65.2759 158.61H42.5021L31.1135 138.885L11.3886 127.496V104.723L0 84.9978L11.3886 65.2729V42.4991L31.11 31.1135L42.4986 11.3886H65.2725L84.9973 0L104.722 11.3886H127.496L138.882 31.1105Z" fill="#DC2438"/>
<path d="M96.36 112L84.92 94.8L74.84 112H59.32L77.32 83.44L58.92 55.84H74.84L86.12 72.8L96.04 55.84H111.56L93.72 84.16L112.28 112H96.36Z" fill="white"/>
</svg>
