<svg width="22" height="22" viewBox="0 0 22 22" fill="none" xmlns="http://www.w3.org/2000/svg">
<path d="M21.3573 5.54069L11.9049 0.235248C11.347 -0.0784162 10.666 -0.0784162 10.1083 0.235248L0.655763 5.54069C0.266368 5.75822 0.0468741 6.18915 0.0998677 6.63189C0.152861 7.07482 0.468137 7.44166 0.897815 7.56107C0.995924 7.58703 1.0969 7.60064 1.19841 7.60135C1.38639 7.60189 1.57116 7.55248 1.73372 7.45831L11.0065 2.25545L20.2793 7.45831C20.5334 7.60207 20.8341 7.63913 21.1154 7.56107C21.5451 7.44166 21.8602 7.07482 21.9132 6.63189C21.9663 6.18915 21.7467 5.75822 21.3573 5.54069ZM21.1372 6.68095C21.0379 6.85694 20.8148 6.91924 20.6386 6.82042L11.3732 1.6138C11.1463 1.48275 10.8667 1.48275 10.6399 1.6138L1.3744 6.82042C1.19734 6.92157 0.971576 6.85998 0.870244 6.68292C0.769091 6.50568 0.830678 6.27992 1.00774 6.17876L10.4676 0.873141C10.8022 0.684978 11.2108 0.684978 11.5456 0.873141L20.998 6.17876C21.0835 6.22639 21.1464 6.30641 21.1725 6.40076C21.1986 6.49511 21.1859 6.59609 21.1372 6.68095Z" fill="#000000"/>
<path d="M2.20675 8.23926C2.00426 8.23926 1.84009 8.40343 1.84009 8.60592V21.6334C1.84009 21.8358 2.00426 22 2.20675 22C2.40923 22 2.5734 21.8358 2.5734 21.6334V8.60592C2.5734 8.40343 2.40923 8.23926 2.20675 8.23926Z" fill="#000000"/>
<path d="M19.8064 8.23926C19.6039 8.23926 19.4397 8.40343 19.4397 8.60592V21.6334C19.4397 21.8358 19.6039 22 19.8064 22C20.0088 22 20.173 21.8358 20.173 21.6334V8.60592C20.173 8.40343 20.0088 8.23926 19.8064 8.23926Z" fill="#000000"/>
<path d="M18.3396 7.7002H3.6733C3.47081 7.7002 3.30664 7.86437 3.30664 8.06685V21.6332C3.30664 21.8357 3.47081 21.9998 3.6733 21.9998C3.87578 21.9998 4.03996 21.8357 4.03996 21.6332V9.90014H17.973V21.6332C17.973 21.8357 18.1371 21.9998 18.3396 21.9998C18.5421 21.9998 18.7063 21.8357 18.7063 21.6332V8.06685C18.7063 7.86437 18.5421 7.7002 18.3396 7.7002ZM4.03996 9.16683V8.43351H17.973V9.16683H4.03996Z" fill="#000000"/>
<path d="M13.9397 5.50041C14.1422 5.50041 14.3064 5.33623 14.3064 5.13375C14.3064 4.93126 14.1422 4.76709 13.9397 4.76709H8.0732C7.87072 4.76709 7.70654 4.93126 7.70654 5.13375V6.60038C7.70654 6.80287 7.87072 6.96704 8.0732 6.96704H13.9397C14.1422 6.96704 14.3064 6.80287 14.3064 6.60038C14.3064 6.3979 14.1422 6.23372 13.9397 6.23372H8.43986V5.50041H13.9397Z" fill="#000000"/>
<path d="M16.8732 19.8003H16.5065V15.767C16.5065 15.5646 16.3423 15.4004 16.1398 15.4004H15.0399V11.3671C15.0399 11.1647 14.8757 11.0005 14.6732 11.0005H9.53999C9.33751 11.0005 9.17334 11.1647 9.17334 11.3671V13.2004H7.34004C7.13756 13.2004 6.97339 13.3646 6.97339 13.5671V15.4004H5.87341C5.67093 15.4004 5.50675 15.5646 5.50675 15.767V19.8003H5.1401C4.93761 19.8003 4.77344 19.9645 4.77344 20.1669V21.6336C4.77344 21.8361 4.93761 22.0002 5.1401 22.0002C5.34258 22.0002 5.50675 21.8361 5.50675 21.6336V20.5336H6.60673V21.6336C6.60673 21.8361 6.7709 22.0002 6.97339 22.0002C7.17587 22.0002 7.34004 21.8361 7.34004 21.6336V20.5336H8.07336V21.6336C8.07336 21.8361 8.23753 22.0002 8.44002 22.0002C8.6425 22.0002 8.80668 21.8361 8.80668 21.6336V20.5336H9.90665V21.6336C9.90665 21.8361 10.0708 22.0002 10.2733 22.0002C10.4758 22.0002 10.64 21.8361 10.64 21.6336V20.5336H11.3733V21.6336C11.3733 21.8361 11.5375 22.0002 11.7399 22.0002C11.9424 22.0002 12.1066 21.8361 12.1066 21.6336V20.5336H13.2066V21.6336C13.2066 21.8361 13.3707 22.0002 13.5732 22.0002C13.7757 22.0002 13.9399 21.8361 13.9399 21.6336V20.5336H14.6732V21.6336C14.6732 21.8361 14.8374 22.0002 15.0399 22.0002C15.2424 22.0002 15.4065 21.8361 15.4065 21.6336V20.5336H16.5065V21.6336C16.5065 21.8361 16.6707 22.0002 16.8732 22.0002C17.0756 22.0002 17.2398 21.8361 17.2398 21.6336V20.1669C17.2398 19.9645 17.0756 19.8003 16.8732 19.8003ZM13.2066 16.1337H13.9399V16.867H13.2066V16.1337ZM12.4733 11.7338V12.4671H11.7399V11.7338H12.4733ZM9.90665 11.7338H11.0066V12.8338C11.0066 13.0363 11.1708 13.2004 11.3733 13.2004H12.8399C13.0424 13.2004 13.2066 13.0363 13.2066 12.8338V11.7338H14.3066V15.4004H9.90665V11.7338ZM8.07336 16.1337H8.80668V16.867H8.07336V16.1337ZM7.7067 13.9338H9.17334V15.4004H7.7067V13.9338ZM6.24007 19.8003V16.1337H7.34004V17.2337C7.34004 17.4362 7.50422 17.6003 7.7067 17.6003H9.17334C9.37582 17.6003 9.53999 17.4362 9.53999 17.2337V16.1337H10.64V19.8003H6.24007ZM11.3733 19.8003V16.1337H12.4733V17.2337C12.4733 17.4362 12.6374 17.6003 12.8399 17.6003H14.3066C14.509 17.6003 14.6732 17.4362 14.6732 17.2337V16.1337H15.7732V19.8003H11.3733Z" fill="#000000"/>
</svg>
