<svg width="22" height="20" viewBox="0 0 22 20" fill="none" xmlns="http://www.w3.org/2000/svg">
<path d="M21.9509 14.1159C21.7983 13.5597 21.332 13.1459 20.7616 13.0603V4.70046H21.4901C21.6912 4.70046 21.8543 4.53737 21.8543 4.33622V0.693829C21.8543 0.492501 21.6912 0.32959 21.4901 0.32959H5.46358C5.26243 0.32959 5.09934 0.492501 5.09934 0.693829V4.33622C5.09934 4.53737 5.26243 4.70046 5.46358 4.70046H6.19206V11.9852H5.82782C4.92381 11.9831 4.03828 12.2422 3.27815 12.7315V10.8925C3.27815 10.6912 3.11506 10.5283 2.91391 10.5283H0.364239C0.163089 10.5283 0 10.6912 0 10.8925V19.27C0 19.4712 0.163089 19.6342 0.364239 19.6342H2.91391C3.11506 19.6342 3.27815 19.4712 3.27815 19.27V17.4312C4.03846 17.9201 4.92381 18.1792 5.82782 18.1773H11.8086C12.223 18.1766 12.6354 18.1222 13.0358 18.0154L20.9219 15.9029C21.6978 15.6915 22.1576 14.8933 21.9509 14.1159ZM5.82782 1.05807H21.1259V3.97198H5.82782V1.05807ZM6.92054 4.70046H20.0331V13.1229L15.8058 14.2566C15.6317 13.8415 15.2765 13.5297 14.8424 13.4107L9.93458 12.0944C9.6582 12.0217 9.37364 11.9849 9.08783 11.9852H6.92054V4.70046ZM2.54967 18.9058H0.728478V11.2568H2.54967V18.9058ZM20.7328 15.1992L12.8481 17.3117C12.509 17.4022 12.1597 17.4483 11.8086 17.4488H5.82782C4.96062 17.4508 4.11636 17.1694 3.42381 16.6474L3.27815 16.5382V13.6243L3.42381 13.5149C4.11636 12.9929 4.96062 12.7114 5.82782 12.7137H9.08783C9.31032 12.7135 9.5321 12.7423 9.74748 12.7993L14.6537 14.1145C14.9436 14.1943 15.1558 14.4428 15.1888 14.7417C15.1927 14.7567 15.1975 14.7714 15.2034 14.7859C15.1991 14.8015 15.1959 14.8173 15.1938 14.8335C15.1942 14.8927 15.1862 14.9518 15.1698 15.0087C15.0841 15.3262 14.7965 15.5469 14.4676 15.5474C14.4034 15.5479 14.3398 15.5398 14.2779 15.5234L11.1818 14.6932C11.0549 14.6555 10.9174 14.6896 10.8228 14.7825C10.7283 14.8753 10.6915 15.0121 10.7269 15.1398C10.7623 15.2673 10.8642 15.3658 10.9931 15.3966L14.0892 16.2272C14.2128 16.2597 14.3403 16.2761 14.4684 16.2759C15.1232 16.2755 15.6971 15.8375 15.8702 15.2058C15.8905 15.1327 15.9041 15.058 15.9114 14.9826L20.3518 13.7918C20.3835 13.7838 20.4178 13.7757 20.4502 13.7703C20.8128 13.7235 21.1538 13.9528 21.2475 14.306C21.2639 14.3675 21.272 14.431 21.2715 14.4947C21.272 14.8244 21.0512 15.1133 20.7328 15.1992Z" fill="#000000"/>
<path d="M11.6555 6.15768H15.2979C15.499 6.15768 15.6621 5.99459 15.6621 5.79344C15.6621 5.59211 15.499 5.4292 15.2979 5.4292H11.6555C11.4543 5.4292 11.2913 5.59211 11.2913 5.79344C11.2913 5.99459 11.4543 6.15768 11.6555 6.15768Z" fill="#999999"/>
</svg>
