<svg width="40" height="40" viewBox="0 0 40 40" fill="none" xmlns="http://www.w3.org/2000/svg">
<path d="M13.4805 30.6173C13.4703 30.5673 13.4555 30.5181 13.4359 30.4704C13.4164 30.4235 13.3922 30.3782 13.3641 30.336C13.3359 30.2931 13.3031 30.2532 13.2672 30.2173C13.2313 30.1813 13.1914 30.1485 13.1484 30.1204C13.1063 30.0923 13.0609 30.0681 13.0133 30.0485C12.9664 30.029 12.9172 30.0134 12.8672 30.004C12.7664 29.9837 12.6625 29.9837 12.5625 30.004C12.5125 30.0134 12.4633 30.029 12.4156 30.0485C12.3687 30.0681 12.3234 30.0923 12.2812 30.1204C12.2383 30.1485 12.1984 30.1813 12.1625 30.2173C12.1266 30.2532 12.0938 30.2931 12.0656 30.336C12.0367 30.3782 12.0133 30.4235 11.9938 30.4704C11.9742 30.5181 11.9586 30.5673 11.9492 30.6173C11.9391 30.6673 11.9336 30.7188 11.9336 30.7696C11.9336 30.8204 11.9391 30.872 11.9492 30.922C11.9586 30.972 11.9742 31.0212 11.9938 31.0681C12.0133 31.1157 12.0367 31.161 12.0656 31.2032C12.0938 31.2462 12.1266 31.286 12.1625 31.322C12.1984 31.3579 12.2383 31.3907 12.2812 31.4188C12.3234 31.447 12.3687 31.4713 12.4156 31.4908C12.4633 31.5103 12.5125 31.526 12.5625 31.5353C12.6125 31.5455 12.6641 31.551 12.7148 31.551C12.7656 31.551 12.8172 31.5455 12.8672 31.5353C12.9172 31.526 12.9664 31.5103 13.0133 31.4908C13.0609 31.4713 13.1063 31.447 13.1484 31.4188C13.1914 31.3907 13.2313 31.3579 13.2672 31.322C13.3031 31.286 13.3359 31.2462 13.3641 31.2032C13.3922 31.161 13.4164 31.1157 13.4359 31.0681C13.4555 31.0212 13.4703 30.972 13.4805 30.922C13.4906 30.872 13.4961 30.8204 13.4961 30.7696C13.4961 30.7188 13.4906 30.6673 13.4805 30.6173Z" fill="#09090A"/>
<path d="M35.937 30.8582C35.9339 30.8504 35.9308 30.8427 35.9275 30.835C35.2084 29.1524 33.522 28.5305 31.5263 29.2122L26.0834 30.7173C25.7688 29.7644 24.9838 28.9534 23.874 28.5416C23.8671 28.5391 23.8602 28.5366 23.8533 28.5342L17.8704 26.5036C17.3724 25.8599 15.8126 24.2129 12.892 24.2129C10.851 24.2129 9.04547 25.613 8.0125 27.1392H0.78125C0.349766 27.1392 0 27.489 0 27.9205V37.7702C0 38.2017 0.349766 38.5515 0.78125 38.5515H5.42633C5.85781 38.5515 6.20758 38.2017 6.20758 37.7702V37.0957H8.38594C8.81742 37.0957 9.16719 36.7459 9.16719 36.3145V36.0896C10.437 36.2004 10.8547 36.4412 12.0209 37.1137C12.9178 37.6309 14.2734 38.4126 16.7145 39.5102C16.7258 39.5152 16.7373 39.5201 16.7488 39.5246C17.2173 39.7089 18.1331 39.9984 19.2623 39.9984C20.0482 39.9984 20.9377 39.858 21.8506 39.4442L33.8812 35.1367C33.9026 35.1291 33.9237 35.1205 33.9443 35.1109C35.0941 34.582 36.8074 33.0911 35.937 30.8582ZM4.64508 36.9889H1.5625V28.7016H4.64508V36.9889ZM7.60469 35.5331H6.20758V28.7016H7.60469V35.5331ZM33.32 33.6779L21.2948 37.9834C21.2843 37.9872 21.27 37.9928 21.2596 37.997C21.2491 38.0013 21.2385 38.0059 21.2281 38.0106C19.5534 38.7803 17.9614 38.3195 17.3375 38.077C14.9795 37.0159 13.721 36.2902 12.8015 35.76C11.523 35.0228 10.907 34.6675 9.16719 34.5238V28.2315C9.90773 27.0177 11.3438 25.7753 12.8921 25.7753C15.5473 25.7753 16.6723 27.5023 16.7166 27.572C16.812 27.7271 16.9586 27.8441 17.131 27.9026L23.34 30.0099C24.3316 30.3821 24.8557 31.2313 24.6148 32.0782C24.5037 32.4693 24.2468 32.7937 23.8916 32.9916C23.5395 33.1877 23.1325 33.2362 22.7445 33.1289L15.7451 30.9108C15.3335 30.7804 14.8946 31.0082 14.7643 31.4195C14.6339 31.8309 14.8617 32.2699 15.273 32.4003L22.2847 34.6223C22.2921 34.6246 22.2995 34.6269 22.307 34.629C22.587 34.7086 22.872 34.748 23.1552 34.748C23.6738 34.748 24.1867 34.6159 24.6522 34.3565C25.372 33.9555 25.8924 33.2981 26.1177 32.5055C26.1357 32.4423 26.1516 32.379 26.1655 32.3157L32.0313 30.6907C32.8785 30.4013 33.9906 30.297 34.4858 31.4374C34.9983 32.7762 33.6663 33.5127 33.32 33.6779Z" fill="#09090A"/>
<path d="M28.0516 10.277C28.0414 10.227 28.0266 10.1777 28.0063 10.1301C27.9867 10.0832 27.9633 10.0379 27.9344 9.9957C27.9062 9.95273 27.8734 9.91289 27.8375 9.87695C27.8016 9.84102 27.7617 9.8082 27.7187 9.78008C27.6766 9.75195 27.6312 9.72773 27.5844 9.7082C27.5367 9.68867 27.4875 9.67305 27.4383 9.66367C27.3375 9.64336 27.2336 9.64336 27.1328 9.66367C27.0828 9.67305 27.0336 9.68867 26.9867 9.7082C26.9391 9.72773 26.8938 9.75195 26.8516 9.78008C26.8086 9.8082 26.7687 9.84102 26.7328 9.87695C26.6969 9.91289 26.6641 9.95273 26.6359 9.9957C26.6078 10.0379 26.5836 10.0832 26.5641 10.1301C26.5445 10.1777 26.5289 10.227 26.5195 10.277C26.5094 10.327 26.5039 10.3785 26.5039 10.4293C26.5039 10.4801 26.5094 10.5316 26.5195 10.5816C26.5289 10.6316 26.5445 10.6809 26.5641 10.7277C26.5836 10.7754 26.6078 10.8207 26.6359 10.8629C26.6641 10.9059 26.6969 10.9457 26.7328 10.9816C26.7687 11.0176 26.8086 11.0504 26.8516 11.0785C26.8938 11.1066 26.9391 11.1309 26.9867 11.1504C27.0336 11.1699 27.0828 11.1848 27.1328 11.1949C27.1828 11.2051 27.2344 11.2105 27.2852 11.2105C27.3359 11.2105 27.3875 11.2051 27.4383 11.1949C27.4875 11.1848 27.5367 11.1699 27.5844 11.1504C27.6312 11.1309 27.6766 11.1066 27.7187 11.0785C27.7617 11.0504 27.8016 11.0176 27.8375 10.9816C27.8734 10.9457 27.9062 10.9059 27.9344 10.8629C27.9633 10.8207 27.9867 10.7754 28.0063 10.7277C28.0266 10.6809 28.0414 10.6316 28.0516 10.5816C28.0617 10.5316 28.0664 10.4801 28.0664 10.4293C28.0664 10.3785 28.0617 10.327 28.0516 10.277Z" fill="#09090A"/>
<path d="M39.2187 2.64787H34.5737C34.1422 2.64787 33.7924 2.99764 33.7924 3.42912V4.10365H31.6141C31.1826 4.10365 30.8328 4.45342 30.8328 4.8849V5.10975C29.563 4.99889 29.1453 4.75811 27.9791 4.08561C27.0823 3.56842 25.7267 2.78678 23.2855 1.6892C23.2742 1.68404 23.2628 1.67928 23.2512 1.67475C22.4566 1.36209 20.374 0.746934 18.1497 1.75498L15.0059 2.88061L12.356 0.230762C12.0509 -0.0743164 11.5562 -0.0743164 11.2512 0.230762L2.55132 8.93053C2.26991 9.21201 2.21593 9.70006 2.55132 10.0354L17.4175 24.9016C17.6554 25.1396 18.2124 25.2115 18.5224 24.9016L26.465 16.9591C26.6715 16.9769 26.8858 16.9865 27.1079 16.9865C29.149 16.9865 30.9544 15.5864 31.9873 14.0603H39.2187C39.6502 14.0603 40 13.7105 40 13.279V3.42912C40 2.99764 39.6502 2.64787 39.2187 2.64787ZM11.8035 1.88803L13.5841 3.66865C13.0548 3.996 12.4429 4.17115 11.8035 4.17115C11.1641 4.17115 10.5522 3.99607 10.0229 3.66865L11.8035 1.88803ZM5.98929 11.2637L4.20866 9.48295L5.98929 7.70232C6.31663 8.23162 6.49179 8.84357 6.49179 9.48295C6.49179 10.1223 6.31671 10.7343 5.98929 11.2637ZM17.97 23.2443L16.1897 21.464C17.2766 20.7932 18.6632 20.7932 19.7502 21.464L17.97 23.2443ZM20.8759 20.3385C19.1494 19.0862 16.7905 19.0862 15.0641 20.3385L7.11484 12.3891C7.72491 11.5501 8.05429 10.5422 8.05429 9.48295C8.05429 8.42365 7.72499 7.41584 7.11484 6.57678L8.89741 4.79428C9.73648 5.40436 10.7443 5.73373 11.8036 5.73373C12.8629 5.73373 13.8707 5.40436 14.7098 4.79428L16.3995 6.48404C16.0349 6.53787 15.6794 6.65803 15.3478 6.84279C14.7878 7.15482 14.3484 7.62209 14.0748 8.1874C13.1936 8.35061 12.3777 8.77725 11.7377 9.41717C10.0014 11.1536 10.0014 13.9788 11.7378 15.7152C12.6059 16.5833 13.7463 17.0175 14.8868 17.0175C16.0272 17.0175 17.1676 16.5834 18.0359 15.7152C18.6007 15.1504 18.9964 14.4562 19.1946 13.6996L21.8324 14.5948C21.5355 15.9704 21.8396 17.4176 22.66 18.5544L20.8759 20.3385ZM16.126 12.6578C16.1329 12.6603 16.1398 12.6628 16.1467 12.6651L17.7089 13.1954C17.5909 13.7278 17.324 14.2173 16.931 14.6104C15.8038 15.7374 13.9698 15.7376 12.8427 14.6104C11.7155 13.4833 11.7155 11.6493 12.8427 10.5221C13.1146 10.2501 13.4355 10.0375 13.7851 9.89334C13.9293 11.0935 14.7934 12.1633 16.126 12.6578ZM23.7857 17.4286C23.4841 16.9372 23.3135 16.3763 23.2866 15.8039C23.6608 16.0744 24.1181 16.3395 24.6644 16.5499L23.7857 17.4286ZM30.8327 12.9676C30.0923 14.1815 28.6562 15.4239 27.1079 15.4239C26.8182 15.4239 26.5467 15.4033 26.2929 15.3665C26.2919 15.3664 26.2909 15.3662 26.2898 15.3661C24.6026 15.121 23.6951 14.1621 23.3959 13.7824C23.38 13.759 23.3121 13.6701 23.302 13.6554C23.211 13.4927 23.0618 13.3619 22.8715 13.2973L16.6599 11.1891C15.6687 10.8171 15.1447 9.96826 15.3848 9.1217C15.385 9.12115 15.3851 9.12061 15.3853 9.12006C15.3855 9.11943 15.3857 9.11873 15.3859 9.11811C15.4975 8.72826 15.7539 8.4049 16.1083 8.20748C16.4603 8.01131 16.8673 7.96264 17.2554 8.07021L24.2548 10.2883C24.6662 10.4188 25.1053 10.1908 25.2356 9.77951C25.3659 9.36818 25.1382 8.92912 24.7269 8.79873L19.1601 7.03467L19.1115 6.98607C19.111 6.98561 19.1105 6.98506 19.11 6.98459L16.228 4.10256L18.7051 3.21553C18.7135 3.21248 18.7238 3.20865 18.7321 3.20529C18.7342 3.20443 18.7383 3.20287 18.7403 3.20201C18.7509 3.19771 18.7614 3.19318 18.7718 3.18842C20.4465 2.41873 22.0384 2.87943 22.6623 3.12209C25.0204 4.18311 26.279 4.90881 27.1985 5.43904C28.4769 6.17631 29.093 6.53154 30.8327 6.67522V12.9676V12.9676ZM33.7924 12.4976H32.3953V5.66615H33.7924V12.4976ZM38.4375 12.4976H35.3549V4.21037H38.4375V12.4976Z" fill="#09090A"/>
</svg>
