<svg width="39" height="40" viewBox="0 0 39 40" fill="none" xmlns="http://www.w3.org/2000/svg">
<path d="M8.22735 14.8392C8.22735 13.4159 7.13059 12.2585 5.78189 12.2585C4.43318 12.2585 3.33643 13.4159 3.33643 14.8392C3.33643 16.2624 4.43318 17.4198 5.78189 17.4198C7.13059 17.4198 8.22735 16.2624 8.22735 14.8392ZM4.55916 14.8392C4.55916 14.1276 5.10753 13.5489 5.78189 13.5489C6.45624 13.5489 7.00462 14.1276 7.00462 14.8392C7.00462 15.5508 6.45624 16.1295 5.78189 16.1295C5.10753 16.1295 4.55916 15.5508 4.55916 14.8392Z" fill="#000000"/>
<path d="M19.8433 21.9355H36.9615C37.9726 21.9355 38.7956 21.067 38.7956 20V1.93548C38.7956 0.868511 37.9726 0 36.9615 0H19.8433C18.8322 0 18.0092 0.868511 18.0092 1.93548V11.198C17.6223 11.0534 17.2119 10.9677 16.7865 10.9677C15.7037 10.9677 14.7324 11.4683 14.0598 12.2581H10.0107C9.16351 10.7179 7.58734 9.67742 5.7813 9.67742C3.08449 9.67742 0.890381 11.9928 0.890381 14.8387C0.890381 16.9128 2.05878 18.7005 3.73496 19.5205L4.49917 27.1818C3.82422 27.391 3.29494 27.9962 3.19166 28.7588L2.19431 36.129H2.11371C1.43936 36.129 0.890978 36.7077 0.890978 37.4194V38.7097C0.890978 39.4213 1.43936 40 2.11371 40H14.341C15.0154 40 15.5637 39.4213 15.5637 38.7097V37.4194H35.1274C37.1505 37.4194 38.7956 35.6833 38.7956 33.5484C38.7956 31.4135 37.1505 29.6774 35.1274 29.6774H13.3866L13.2619 28.7582C13.1502 27.9322 12.5424 27.2839 11.7869 27.1317L9.8904 17.6279C9.9319 17.5592 9.9716 17.4896 10.0101 17.4194H14.0592C14.7312 18.2091 15.7026 18.7097 16.7859 18.7097C17.2113 18.7097 17.6217 18.624 18.0086 18.4794V20C18.0092 21.067 18.8322 21.9355 19.8433 21.9355ZM19.2319 15.4839V14.1935H27.791L27.7922 15.4839H19.2319ZM25.3456 1.29032H31.4592V5.16129H25.3456V1.29032ZM19.8433 1.29032H24.1229V6.45161H32.682V1.29032H36.9615C37.2991 1.29032 37.5729 1.57951 37.5729 1.93548V20C37.5729 20.3563 37.2991 20.6452 36.9615 20.6452H19.8433C19.506 20.6452 19.2319 20.3563 19.2319 20V17.7221C19.5173 17.4531 19.7594 17.1317 19.9558 16.7742H27.791C28.4654 16.7742 29.0138 16.1955 29.0138 15.4839V14.1935C29.0138 13.4819 28.4654 12.9032 27.791 12.9032H19.9558C19.7594 12.545 19.5173 12.2253 19.2319 11.9556V1.93548C19.2319 1.57951 19.506 1.29032 19.8433 1.29032ZM2.11371 14.8387C2.11371 12.7038 3.75884 10.9677 5.7819 10.9677C7.80496 10.9677 9.45009 12.7038 9.45009 14.8387C9.45009 16.9736 7.80496 18.7097 5.7819 18.7097C3.75884 18.7097 2.11371 16.9736 2.11371 14.8387ZM5.7819 20C6.95687 20 8.03661 19.5599 8.88082 18.8278L10.531 27.0968H5.7207L5.00545 19.9285C5.25919 19.9716 5.51711 20 5.7819 20ZM14.3422 38.7097H2.11371V37.4194H14.341L14.3422 38.7097ZM16.1751 33.5484C16.1751 32.1251 17.2719 30.9677 18.6206 30.9677C19.9693 30.9677 21.066 32.1251 21.066 33.5484C21.066 34.9716 19.9693 36.129 18.6206 36.129C17.2719 36.129 16.1751 34.9716 16.1751 33.5484ZM29.0138 33.5484C29.0138 34.9716 27.917 36.129 26.5683 36.129C25.2196 36.129 24.1229 34.9716 24.1229 33.5484C24.1229 32.1251 25.2196 30.9677 26.5683 30.9677C27.917 30.9677 29.0138 32.1251 29.0138 33.5484ZM29.295 30.9677H32.4014C31.8175 31.6535 31.4592 32.5561 31.4592 33.5484C31.4592 34.5407 31.8175 35.4432 32.4008 36.129H29.295C29.8783 35.4432 30.2365 34.5407 30.2365 33.5484C30.2365 32.5561 29.8783 31.6535 29.295 30.9677ZM23.8417 36.129H21.3472C21.9305 35.4432 22.2888 34.5407 22.2888 33.5484C22.2888 32.5561 21.9305 31.6535 21.3472 30.9677H23.8422C23.2583 31.6535 22.9001 32.5561 22.9001 33.5484C22.9001 34.5407 23.2583 35.4432 23.8417 36.129ZM37.5729 33.5484C37.5729 34.9716 36.4761 36.129 35.1274 36.129C33.7787 36.129 32.682 34.9716 32.682 33.5484C32.682 32.1251 33.7787 30.9677 35.1274 30.9677C36.4761 30.9677 37.5729 32.1251 37.5729 33.5484ZM15.8939 30.9677C15.3106 31.6535 14.9524 32.5561 14.9524 33.5484C14.9524 34.5407 15.3106 35.4432 15.8939 36.129H14.2604L13.5616 30.9677H15.8939ZM13.0248 36.129H3.42987L3.60481 34.8387H11.2842V33.5484H3.77974L4.40334 28.9406C4.44543 28.6253 4.70604 28.3871 5.00784 28.3871H11.4463C11.7481 28.3871 12.0087 28.6253 12.0508 28.9406L13.0248 36.129ZM10.5119 16.129C10.6134 15.7154 10.6728 15.2851 10.6728 14.8387C10.6728 14.3923 10.6134 13.962 10.5119 13.5484H13.3323C13.1965 13.9529 13.1183 14.3857 13.1183 14.8387C13.1183 15.2917 13.1965 15.7245 13.3323 16.129H10.5119ZM14.341 14.8387C14.341 13.4154 15.4378 12.2581 16.7865 12.2581C17.4853 12.2581 18.1328 12.5756 18.5889 13.1014C18.242 13.3291 18.0092 13.7317 18.0092 14.1935V15.4839C18.0092 15.9457 18.242 16.3483 18.5889 16.576C18.1334 17.1018 17.4853 17.4194 16.7865 17.4194C15.4378 17.4194 14.341 16.262 14.341 14.8387Z" fill="#000000"/>
<path d="M31.4595 18.0649H36.3504V19.3553H31.4595V18.0649Z" fill="#000000"/>
<path d="M31.4595 15.4844H36.3504V16.7747H31.4595V15.4844Z" fill="#000000"/>
<path d="M18.0088 32.9038H19.2315V34.1941H18.0088V32.9038Z" fill="#000000"/>
<path d="M25.9568 32.9038H27.1795V34.1941H25.9568V32.9038Z" fill="#000000"/>
<path d="M34.5159 32.9038H35.7386V34.1941H34.5159V32.9038Z" fill="#000000"/>
</svg>
