<svg width="22" height="20" viewBox="0 0 22 20" fill="none" xmlns="http://www.w3.org/2000/svg">
<path d="M5.86523 11.248H2.52539V17H0.640625V2.78125H5.34766C6.94922 2.78125 8.17969 3.14583 9.03906 3.875C9.90495 4.60417 10.3379 5.66536 10.3379 7.05859C10.3379 7.94401 10.097 8.71549 9.61523 9.37305C9.13997 10.0306 8.47591 10.5221 7.62305 10.8477L10.9629 16.8828V17H8.95117L5.86523 11.248ZM2.52539 9.71484H5.40625C6.33724 9.71484 7.07617 9.47396 7.62305 8.99219C8.17643 8.51042 8.45312 7.86589 8.45312 7.05859C8.45312 6.17969 8.18945 5.50586 7.66211 5.03711C7.14128 4.56836 6.38607 4.33073 5.39648 4.32422H2.52539V9.71484ZM19.6836 13.3379C19.6836 12.7389 19.472 12.2344 19.0488 11.8242C18.6322 11.4141 17.9258 11.043 16.9297 10.7109C15.543 10.2878 14.5306 9.73763 13.8926 9.06055C13.2611 8.37695 12.9453 7.51107 12.9453 6.46289C12.9453 5.39518 13.2546 4.51953 13.873 3.83594C14.498 3.15234 15.3542 2.74544 16.4414 2.61523V0.476562H17.8965V2.625C18.9902 2.77474 19.8398 3.23372 20.4453 4.00195C21.0573 4.77018 21.3633 5.82161 21.3633 7.15625H19.5664C19.5664 6.23828 19.3483 5.50911 18.9121 4.96875C18.4759 4.42839 17.8867 4.1582 17.1445 4.1582C16.3698 4.1582 15.7773 4.36003 15.3672 4.76367C14.957 5.16081 14.752 5.71745 14.752 6.43359C14.752 7.09766 14.9668 7.62826 15.3965 8.02539C15.8327 8.41602 16.5456 8.77409 17.5352 9.09961C18.5312 9.41862 19.306 9.77344 19.8594 10.1641C20.4193 10.5482 20.8294 10.9974 21.0898 11.5117C21.3568 12.026 21.4902 12.6283 21.4902 13.3184C21.4902 14.4186 21.1582 15.304 20.4941 15.9746C19.8366 16.6452 18.9121 17.0423 17.7207 17.166V19.0312H16.2754V17.166C15.0645 17.0553 14.1139 16.6257 13.4238 15.877C12.7402 15.1217 12.3984 14.0996 12.3984 12.8105H14.2051C14.2051 13.7155 14.4427 14.4121 14.918 14.9004C15.3932 15.3887 16.0671 15.6328 16.9395 15.6328C17.7923 15.6328 18.4629 15.4277 18.9512 15.0176C19.4395 14.6074 19.6836 14.0475 19.6836 13.3379Z" fill="black"/>
</svg>
