<svg width="18" height="22" viewBox="0 0 18 22" fill="none" xmlns="http://www.w3.org/2000/svg">
<path d="M16.5683 5.12828V4.70697C16.5683 3.51025 15.5973 2.53666 14.4038 2.53666H12.0124C11.756 1.93308 11.1625 1.50674 10.4702 1.49673C10.1968 0.630051 9.38715 0 8.43354 0C7.47998 0 6.67032 0.630051 6.39695 1.49673C5.70464 1.50674 5.11111 1.93312 4.85476 2.53666H2.46329C1.26979 2.53666 0.298828 3.51025 0.298828 4.70697V19.8297C0.298871 21.0264 1.26984 22 2.46334 22H14.4038C15.5973 22 16.5683 21.0264 16.5683 19.8297V19.0621L17.3565 17.7358L17.3566 17.7357C17.5821 17.3562 17.7012 16.9222 17.7012 16.4805V6.78859C17.7012 6.03402 17.2307 5.38751 16.5683 5.12828ZM16.2484 17.0772L15.9237 17.6235L15.5991 17.0773C15.501 16.9122 15.4453 16.7254 15.4365 16.5339H16.4109C16.4021 16.7253 16.3464 16.9122 16.2484 17.0772ZM15.4353 15.2448V8.52255H16.4122V15.2448H15.4353ZM15.4353 7.23349V6.78859C15.4353 6.51703 15.6545 6.29608 15.9238 6.29608C16.1931 6.29608 16.4122 6.51703 16.4122 6.78859V7.23349H15.4353ZM6.42192 2.78562H6.94274C7.2987 2.78562 7.58727 2.49704 7.58727 2.14109C7.58727 1.67127 7.9669 1.28906 8.43359 1.28906C8.90027 1.28906 9.2799 1.67131 9.2799 2.14109C9.2799 2.49704 9.56848 2.78562 9.92443 2.78562H10.4453C10.6731 2.78562 10.8585 2.97279 10.8585 3.20293C10.8585 3.43299 10.6731 3.6202 10.4453 3.6202H6.42192C6.19406 3.6202 6.00869 3.43303 6.00869 3.20293C6.00869 2.97284 6.19406 2.78562 6.42192 2.78562ZM14.4038 20.7109H2.46334C1.98063 20.7109 1.58793 20.3156 1.58793 19.8297V4.70697C1.58793 4.22104 1.98063 3.82572 2.46334 3.82572H4.83702C5.08576 4.45951 5.70241 4.90927 6.42192 4.90927H10.4452C11.1647 4.90927 11.7814 4.45951 12.0301 3.82572H14.4038C14.8865 3.82572 15.2792 4.22104 15.2792 4.70697V5.12823C14.6168 5.38742 14.1463 6.03397 14.1463 6.78859V16.4805C14.1463 16.9222 14.2654 17.3562 14.491 17.7358L15.2792 19.0621V19.8297C15.2792 20.3156 14.8865 20.7109 14.4038 20.7109Z" fill="white"/>
<path d="M12.3542 6.69214H4.27905C3.9231 6.69214 3.63452 6.98072 3.63452 7.33667C3.63452 7.69262 3.9231 7.9812 4.27905 7.9812H12.3542C12.7101 7.9812 12.9987 7.69262 12.9987 7.33667C12.9987 6.98072 12.7101 6.69214 12.3542 6.69214Z" fill="white"/>
<path d="M4.27905 10.1294H10.6421C10.9981 10.1294 11.2867 9.84082 11.2867 9.48486C11.2867 9.12891 10.9981 8.84033 10.6421 8.84033H4.27905C3.9231 8.84033 3.63452 9.12891 3.63452 9.48486C3.63452 9.84082 3.9231 10.1294 4.27905 10.1294Z" fill="white"/>
<path d="M4.27905 12.2776H11.3849C11.7409 12.2776 12.0295 11.989 12.0295 11.6331C12.0295 11.2771 11.7409 10.9885 11.3849 10.9885H4.27905C3.9231 10.9885 3.63452 11.2771 3.63452 11.6331C3.63452 11.989 3.9231 12.2776 4.27905 12.2776Z" fill="white"/>
<path d="M4.27905 14.426H6.61604C6.97199 14.426 7.26057 14.1374 7.26057 13.7815C7.26057 13.4255 6.97199 13.137 6.61604 13.137H4.27905C3.9231 13.137 3.63452 13.4255 3.63452 13.7815C3.63452 14.1374 3.9231 14.426 4.27905 14.426Z" fill="white"/>
<path d="M12.3542 15.2852H4.27905C3.9231 15.2852 3.63452 15.5737 3.63452 15.9297C3.63452 16.2856 3.9231 16.5742 4.27905 16.5742H12.3542C12.7101 16.5742 12.9987 16.2856 12.9987 15.9297C12.9987 15.5737 12.7101 15.2852 12.3542 15.2852Z" fill="white"/>
<path d="M10.6421 17.4333H4.27905C3.9231 17.4333 3.63452 17.7219 3.63452 18.0779C3.63452 18.4338 3.9231 18.7224 4.27905 18.7224H10.6421C10.9981 18.7224 11.2867 18.4338 11.2867 18.0779C11.2867 17.7219 10.9981 17.4333 10.6421 17.4333Z" fill="white"/>
</svg>
