<svg width="31" height="30" viewBox="0 0 31 30" fill="none" xmlns="http://www.w3.org/2000/svg">
<path d="M27.5933 0H13.6995C11.9287 0 10.4932 1.43908 10.4932 3.21428V9.64285C10.4932 10.2346 10.9717 10.7143 11.562 10.7143C12.1523 10.7143 12.6308 10.2346 12.6308 9.64285V3.21428C12.6308 2.62253 13.1093 2.14283 13.6996 2.14283H27.5934C28.1837 2.14283 28.6622 2.62253 28.6622 3.21428V26.7857C28.6622 27.3775 28.1837 27.8572 27.5934 27.8572H13.6995C13.1092 27.8572 12.6307 27.3775 12.6307 26.7857V20.3571C12.6307 19.7654 12.1522 19.2857 11.5619 19.2857C10.9717 19.2857 10.4932 19.7654 10.4932 20.3571V26.7857C10.4932 28.5609 11.9287 30 13.6994 30H27.5933C29.3641 30 30.7995 28.5609 30.7995 26.7857V3.21428C30.7996 1.43908 29.3641 0 27.5933 0Z" fill="#999999"/>
<path d="M22.2495 13.9284H4.52321L8.04265 10.4002C8.4527 9.97454 8.44093 9.29628 8.01635 8.8852C7.60216 8.48423 6.94557 8.48423 6.53144 8.8852L1.18762 14.2423C1.08837 14.3419 1.0099 14.4602 0.956797 14.5906C0.848711 14.8527 0.848711 15.147 0.956797 15.4091C1.01015 15.5399 1.08899 15.6586 1.18869 15.7584L6.53245 21.1155C6.9425 21.5412 7.61907 21.553 8.04365 21.1419C8.46823 20.7308 8.48 20.0526 8.06995 19.6269C8.06137 19.618 8.0526 19.6092 8.04365 19.6006L4.52321 16.0713H22.2496C22.8399 16.0713 23.3184 15.5916 23.3184 14.9998C23.3184 14.4081 22.8398 13.9284 22.2495 13.9284Z" fill="#999999"/>
</svg>
