<svg width="38" height="40" viewBox="0 0 38 40" fill="none" xmlns="http://www.w3.org/2000/svg">
<path d="M36.6886 10.074L20.4025 0.427724C19.4413 -0.142575 18.2679 -0.142575 17.307 0.427724L1.02059 10.074C0.349675 10.4695 -0.0285045 11.253 0.0628015 12.058C0.154108 12.8633 0.697317 13.5303 1.43764 13.7474C1.60668 13.7946 1.78065 13.8193 1.95555 13.8206C2.27944 13.8216 2.59778 13.7318 2.87787 13.5606L18.8546 4.10082L34.8313 13.5606C35.269 13.8219 35.7872 13.8893 36.2718 13.7474C37.0121 13.5303 37.555 12.8633 37.6464 12.058C37.738 11.253 37.3595 10.4695 36.6886 10.074ZM36.3095 12.1472C36.1383 12.4672 35.7539 12.5804 35.4504 12.4008L19.4863 2.93418C19.0955 2.6959 18.6137 2.6959 18.2228 2.93418L2.25877 12.4008C1.9537 12.5847 1.56472 12.4727 1.39013 12.1508C1.21585 11.8285 1.32196 11.418 1.62703 11.2341L17.9261 1.58753C18.5026 1.24541 19.2065 1.24541 19.7834 1.58753L36.0695 11.2341C36.2169 11.3207 36.3252 11.4662 36.3702 11.6378C36.4153 11.8093 36.3934 11.9929 36.3095 12.1472Z" fill="#09090A"/>
<path d="M3.69253 14.9805C3.34365 14.9805 3.06079 15.279 3.06079 15.6471V39.3334C3.06079 39.7015 3.34365 40 3.69253 40C4.04141 40 4.32427 39.7015 4.32427 39.3334V15.6471C4.32427 15.279 4.04141 14.9805 3.69253 14.9805Z" fill="#09090A"/>
<path d="M34.016 14.9805C33.6671 14.9805 33.3843 15.279 33.3843 15.6471V39.3334C33.3843 39.7015 33.6671 40 34.016 40C34.3649 40 34.6477 39.7015 34.6477 39.3334V15.6471C34.6477 15.279 34.3649 14.9805 34.016 14.9805Z" fill="#09090A"/>
<path d="M31.4887 14.0005H6.21914C5.87027 14.0005 5.5874 14.299 5.5874 14.6671V39.3332C5.5874 39.7013 5.87027 39.9998 6.21914 39.9998C6.56802 39.9998 6.85088 39.7013 6.85088 39.3332V18.0004H30.857V39.3332C30.857 39.7013 31.1398 39.9998 31.4887 39.9998C31.8376 39.9998 32.1205 39.7013 32.1205 39.3332V14.6671C32.1205 14.299 31.8376 14.0005 31.4887 14.0005ZM6.85088 16.6671V15.3338H30.857V16.6671H6.85088Z" fill="#09090A"/>
<path d="M23.908 10.0008C24.2569 10.0008 24.5398 9.70229 24.5398 9.33413C24.5398 8.96598 24.2569 8.66748 23.908 8.66748H13.8002C13.4513 8.66748 13.1685 8.96598 13.1685 9.33413V12.0007C13.1685 12.3689 13.4513 12.6674 13.8002 12.6674H23.908C24.2569 12.6674 24.5398 12.3689 24.5398 12.0007C24.5398 11.6326 24.2569 11.3341 23.908 11.3341H14.4319V10.0008H23.908Z" fill="#09090A"/>
<path d="M28.9621 36.0004H28.3304V28.6672C28.3304 28.299 28.0475 28.0005 27.6987 28.0005H25.8034V20.6674C25.8034 20.2992 25.5206 20.0007 25.1717 20.0007H16.3274C15.9785 20.0007 15.6956 20.2992 15.6956 20.6674V24.0006H12.5369C12.188 24.0006 11.9052 24.2991 11.9052 24.6673V28.0005H10.01C9.66109 28.0005 9.37822 28.299 9.37822 28.6672V36.0004H8.74649C8.39761 36.0004 8.11475 36.2989 8.11475 36.667V39.3336C8.11475 39.7018 8.39761 40.0003 8.74649 40.0003C9.09536 40.0003 9.37822 39.7018 9.37822 39.3336V37.3337H11.2734V39.3336C11.2734 39.7018 11.5563 40.0003 11.9052 40.0003C12.2541 40.0003 12.5369 39.7018 12.5369 39.3336V37.3337H13.8004V39.3336C13.8004 39.7018 14.0833 40.0003 14.4321 40.0003C14.781 40.0003 15.0639 39.7018 15.0639 39.3336V37.3337H16.9591V39.3336C16.9591 39.7018 17.242 40.0003 17.5908 40.0003C17.9397 40.0003 18.2226 39.7018 18.2226 39.3336V37.3337H19.4861V39.3336C19.4861 39.7018 19.7689 40.0003 20.1178 40.0003C20.4667 40.0003 20.7495 39.7018 20.7495 39.3336V37.3337H22.6448V39.3336C22.6448 39.7018 22.9276 40.0003 23.2765 40.0003C23.6254 40.0003 23.9082 39.7018 23.9082 39.3336V37.3337H25.1717V39.3336C25.1717 39.7018 25.4546 40.0003 25.8034 40.0003C26.1523 40.0003 26.4352 39.7018 26.4352 39.3336V37.3337H28.3304V39.3336C28.3304 39.7018 28.6133 40.0003 28.9621 40.0003C29.311 40.0003 29.5939 39.7018 29.5939 39.3336V36.667C29.5939 36.2989 29.311 36.0004 28.9621 36.0004ZM22.6448 29.3339H23.9082V30.6672H22.6448V29.3339ZM21.3813 21.334V22.6673H20.1178V21.334H21.3813ZM16.9591 21.334H18.8543V23.334C18.8543 23.7021 19.1372 24.0006 19.4861 24.0006H22.013C22.3619 24.0006 22.6448 23.7021 22.6448 23.334V21.334H24.54V28.0005H16.9591V21.334ZM13.8004 29.3339H15.0639V30.6672H13.8004V29.3339ZM13.1687 25.3339H15.6956V28.0005H13.1687V25.3339ZM10.6417 36.0004V29.3339H12.5369V31.3338C12.5369 31.702 12.8198 32.0005 13.1687 32.0005H15.6956C16.0445 32.0005 16.3274 31.702 16.3274 31.3338V29.3339H18.2226V36.0004H10.6417ZM19.4861 36.0004V29.3339H21.3813V31.3338C21.3813 31.702 21.6641 32.0005 22.013 32.0005H24.54C24.8888 32.0005 25.1717 31.702 25.1717 31.3338V29.3339H27.0669V36.0004H19.4861Z" fill="#09090A"/>
</svg>
