<svg width="22" height="22" viewBox="0 0 22 22" fill="none" xmlns="http://www.w3.org/2000/svg">
<path d="M16.4811 9.52362V5.36018C16.4811 5.24101 16.4206 5.13091 16.335 5.04379L11.2041 0.142166C11.1084 0.0505218 10.9722 0 10.8363 0H2.70141C1.1996 0 0 1.11417 0 2.48061V16.4748C0 17.8413 1.1996 18.9371 2.70141 18.9371H9.12265C10.3372 20.7712 12.5449 22 15.0598 22C18.8801 22 22 19.1755 22 15.6953C22.0052 12.6553 19.606 10.1151 16.4811 9.52362ZM11.3403 1.60948L14.7826 4.90616H12.5499C11.8846 4.90616 11.3403 4.40648 11.3403 3.80122V1.60948ZM2.70141 18.02C1.759 18.02 1.00809 17.3322 1.00809 16.4748V2.48061C1.00809 1.61855 1.759 0.917114 2.70141 0.917114H10.3322V3.80122C10.3322 4.91539 11.3252 5.82327 12.5499 5.82327H15.473V9.40428C15.3219 9.39975 15.2009 9.38599 15.0699 9.38599C13.3109 9.38599 11.6931 10.0005 10.4733 10.9634H4.07241C3.79511 10.9634 3.56836 11.1697 3.56836 11.4218C3.56836 11.6741 3.79511 11.8804 4.07241 11.8804H9.53592C9.17799 12.3389 8.88059 12.7975 8.64886 13.3018H4.07241C3.79511 13.3018 3.56836 13.5081 3.56836 13.7604C3.56836 14.0125 3.79511 14.219 4.07241 14.219H8.32119C8.19518 14.6775 8.12968 15.1864 8.12968 15.6953C8.12968 16.5206 8.30606 17.3369 8.62358 18.0247H2.70141V18.02ZM15.0649 21.0876C11.799 21.0876 9.14276 18.6711 9.14276 15.6999C9.14276 12.7287 11.7938 10.3122 15.0649 10.3122C18.3359 10.3122 20.9869 12.7287 20.9869 15.6999C20.9869 18.6711 18.3309 21.0876 15.0649 21.0876Z" fill="#999999"/>
<path d="M4.07241 9.58313H9.17799C9.45529 9.58313 9.68204 9.37668 9.68204 9.12457C9.68204 8.8723 9.45529 8.66602 9.17799 8.66602H4.07241C3.79511 8.66602 3.56836 8.8723 3.56836 9.12457C3.56836 9.37668 3.79511 9.58313 4.07241 9.58313Z" fill="#999999"/>
<path d="M15.4227 12.3161C15.327 12.2245 15.196 12.1694 15.0548 12.1694C14.9137 12.1694 14.7827 12.2245 14.6869 12.3161L11.7333 15.2002C11.5418 15.3837 11.557 15.6771 11.7586 15.8468C11.9603 16.021 12.2877 16.0072 12.4793 15.824L14.5659 13.7927V18.7997C14.5659 19.052 14.7927 19.2583 15.07 19.2583C15.3471 19.2583 15.574 19.052 15.574 18.7997V13.7927L17.6454 15.824C17.7463 15.9201 17.8773 15.9707 18.0134 15.9707C18.1343 15.9707 18.2553 15.9294 18.356 15.8468C18.5577 15.6726 18.5728 15.3837 18.3813 15.2002L15.4227 12.3161Z" fill="#999999"/>
</svg>
